<svg xmlns="http://www.w3.org/2000/svg" xmlns:xlink="http://www.w3.org/1999/xlink" viewBox="0 0 160 160">
<defs>
    <linearGradient id="a" x1="0.65" y1="0.8" x2="0.65" gradientUnits="objectBoundingBox">
        <stop offset="0" stop-color="#4d5a5a" stop-opacity="0"/>
        <stop offset="1" stop-color="#4d5a5a" stop-opacity="0.12"/>
    </linearGradient>
    <linearGradient id="b" x1="0.645" y1="0.931" x2="0.64" xlink:href="#a"/>
    <radialGradient id="c" cx="0.5" cy="0" gradientUnits="objectBoundingBox">
        <stop offset="0" stop-color="#ebedf0"/>
        <stop offset="1" stop-color="#fff" stop-opacity="0"/>
    </radialGradient>
    <linearGradient id="d" x1="0.5" x2="0.5" y2="0.84" gradientUnits="objectBoundingBox">
        <stop offset="0" stop-color="#4d5a5a" stop-opacity="0.15"/>
        <stop offset="1" stop-color="#4d5a5a" stop-opacity="0.05"/>
    </linearGradient>
    <linearGradient id="e" x1="0.5" y1="-0.3" x2="0.5" y2="1" xlink:href="#a"/>
</defs>
<g transform="translate(-41 -391)"><path d="M36,131V53H16V73H2v58Z" transform="translate(39 376)" fill="url(#a)"/>
    <path d="M123,15h22V29h9v77H123Z" transform="translate(39 376)" fill="url(#b)"/>
    <path d="M0,139H152v21H0Z" transform="translate(41 376)" opacity="0.6" fill="url(#c)"/>
    <path d="M80,54a7,7,0,0,1,3,13V94l-2,2H79a2,2,0,0,1-2-2V67a7,7,0,0,1,3-13Z" transform="translate(39 376)" fill="url(#d)"/>
    <path d="M63.918,53.979a3.5,3.5,0,0,1-.009-4.95,30.556,30.556,0,0,0,0-43.059A3.5,3.5,0,0,1,68.867,1.03a37.568,37.568,0,0,1,0,52.941,3.5,3.5,0,0,1-4.949.009ZM10.909,53.97a37.57,37.57,0,0,1,0-52.941,3.5,3.5,0,1,1,4.958,4.941,30.558,30.558,0,0,0,0,43.059,3.5,3.5,0,1,1-4.958,4.941ZM52.833,42.891A3.5,3.5,0,0,1,53,37.944a15.417,15.417,0,0,0,4.894-10.606c0-3.729-1.491-6.877-4.978-10.363a3.5,3.5,0,1,1,4.949-4.95c4.793,4.793,7.025,9.71,7.025,15.476a22.46,22.46,0,0,1-7.109,15.556,3.5,3.5,0,0,1-4.946-.165Zm-30.92.084A22.513,22.513,0,0,1,15.889,27.5,22.406,22.406,0,0,1,21.81,12.134a3.5,3.5,0,1,1,5.157,4.732,15.454,15.454,0,0,0-4.079,10.606,15.53,15.53,0,0,0,3.975,10.553,3.5,3.5,0,0,1-4.95,4.95Z" transform="translate(78.612 408.5)" fill="url(#e)"/>
    <g transform="translate(70 481)"><rect width="98" height="34" rx="2" fill="#ebedf0"/>
    <rect width="80" height="18" rx="1.1" transform="translate(9 8)" fill="#fff"/>
    <rect width="18" height="6" rx="1.1" transform="translate(15 12)" fill="#ebedf0"/>
    </g>
</g>
</svg>