<svg xmlns="http://www.w3.org/2000/svg" xmlns:xlink="http://www.w3.org/1999/xlink" viewBox="0 0 160 160">

<defs>
    <linearGradient x1="50%" y1="100%" x2="50%" id="van-empty-10-9">
        <stop stop-color="#EEE" offset="0%"/>
        <stop stop-color="#D8D8D8" offset="100%"/>
    </linearGradient>
    <linearGradient x1="100%" y1="50%" y2="50%" id="van-empty-10-10">
        <stop stop-color="#F2F3F5" offset="0%"/>
        <stop stop-color="#DCDEE0" offset="100%"/>
    </linearGradient>
    <linearGradient x1="50%" x2="50%" y2="100%" id="van-empty-10-11">
        <stop stop-color="#F2F3F5" offset="0%"/>
        <stop stop-color="#DCDEE0" offset="100%"/>
    </linearGradient>
    <linearGradient x1="50%" x2="50%" y2="100%" id="van-empty-10-12">
        <stop stop-color="#FFF" offset="0%"/>
        <stop stop-color="#F7F8FA" offset="100%"/>
    </linearGradient>
</defs>

<defs>
    <linearGradient id="van-empty-10-a" x1="64%" y1="100%" x2="64%">
        <stop offset="0" stop-color="#4d5a5a" stop-opacity="0"/>
        <stop offset="1" stop-color="#4d5a5a" stop-opacity="0.12"/>
    </linearGradient>
</defs>

<g opacity=".8">
    <path d="M36 131V53H16v20H2v58h34z" fill="url(#van-empty-10-a)"/>
    <path d="M123 15h22v14h9v77h-31V15z" fill="url(#van-empty-10-a)"/>
</g>

<defs>
    <linearGradient id="van-empty-10-b" x1="64%" y1="97%" x2="64%" y2="0%">
        <stop stop-color="#4d5a5a" offset="0%" stop-opacity="0.02"/>
        <stop stop-color="#4d5a5a" offset="100%" stop-opacity="0.15"/>
    </linearGradient>
</defs>

<g opacity=".8">
    <path d="M87 6c3 0 7 3 8 6a8 8 0 1 1-1 16H80a7 7 0 0 1-8-6c0-4 3-7 6-7 0-5 4-9 9-9Z" fill="url(#van-empty-10-b)"/>
    <path d="M19 23c2 0 3 1 4 3 2 0 4 2 4 4a4 4 0 0 1-4 3v1h-7v-1l-1 1c-2 0-3-2-3-4 0-1 1-3 3-3 0-2 2-4 4-4Z" fill="url(#van-empty-10-b)"/>
</g>

<defs>
<radialGradient id="van-empty-10-d" cx="50%" cy="54%" fx="50%" fy="54%" r="297%" gradientTransform="matrix(-.16 0 0 -.33 .58 .72)">
<stop stop-color="#EBEDF0" offset="0%"/>
<stop stop-color="#F2F3F5" offset="100%" stop-opacity="0.3"/>
</radialGradient>
</defs>

<ellipse fill="url(#van-empty-10-d)" opacity=".8" cx="80" cy="140" rx="46" ry="8"></ellipse>

<g transform="rotate(-45 113 -4)" fill="none">
    <rect fill="url(#van-empty-10-9)" x="24" y="52.8" width="5.8" height="19" rx="1"></rect>
    <rect fill="url(#van-empty-10-10)" x="22.1" y="67.3" width="9.9" height="28" rx="1"></rect>
    <circle stroke="url(#van-empty-10-11)" stroke-width="8" cx="27" cy="27" r="27"></circle>
    <circle fill="url(#van-empty-10-12)" cx="27" cy="27" r="16"></circle>
    <path d="M37 7c-8 0-15 5-16 12" stroke="url(#van-empty-10-11)" stroke-width="3" opacity=".5" stroke-linecap="round" transform="rotate(45 29 13)"/>
</g>

</svg>