<svg xmlns="http://www.w3.org/2000/svg" xmlns:xlink="http://www.w3.org/1999/xlink" viewBox="0 0 152 133">
<defs>
<linearGradient id="a" x1="0.65" y1="0.8" x2="0.65" gradientUnits="objectBoundingBox">
    <stop offset="0" stop-color="#4d5a5a" stop-opacity="0"/>
    <stop offset="1" stop-color="#4d5a5a" stop-opacity="0.12"/>
</linearGradient>
<linearGradient id="b" x1="0.65" y1="0.8" x2="0.65" xlink:href="#a"/>
<linearGradient id="c" x1="0.65" y1="0.95" x2="0.65" xlink:href="#a"/>
<linearGradient id="d" x1="0.65" y1="1.2" x2="0.65" xlink:href="#b"/>
<linearGradient id="e" x1="0.5" x2="0.5" y2="1" gradientUnits="objectBoundingBox">
<stop offset="0" stop-color="#f2f3f5"/><stop offset="1" stop-color="#dcdee0"/>
</linearGradient>
<linearGradient id="f" x1="0.95" y1="0.48" x2="0.055" y2="0.51" gradientUnits="objectBoundingBox">
<stop offset="0" stop-color="#eaedf1"/><stop offset="1" stop-color="#dcdee0"/>
</linearGradient>
<linearGradient id="i" x1="0" y1="0.45" x2="1" y2="0.54" xlink:href="#f"/>
</defs>

<g transform="translate(-155 -150)">
    <path d="M36,131V53H16V73H2v58Z" transform="translate(153 144)" fill="url(#a)"/>
    <path d="M123,15h22V29h9v77H123Z" transform="translate(153 144)" fill="url(#b)"/>
    <path d="M87,6c3,0,7,3,8,6a8.016,8.016,0,0,1-1,16H80a7,7,0,0,1-8-6c0-4,3-7,6-7A8.963,8.963,0,0,1,87,6Z" transform="translate(153 144)" fill="url(#c)" />
    <path d="M19,23c2,0,3,1,4,3a4.033,4.033,0,0,1,4,4,4.08,4.08,0,0,1-4,4H15c-2,0-3-2-3-4a3.193,3.193,0,0,1,3-3A4.3,4.3,0,0,1,19,23Z" transform="translate(153 144)" fill="url(#c)" />
    <g transform="translate(189 194)">
        <g transform="translate(8)">
        <rect width="36" height="53" rx="2" transform="translate(38 13)" fill="#ebedf0" opacity="0.6"/>
        <rect width="64" height="66" rx="2" fill="url(#e)"/>
        <rect width="52" height="55" rx="1" transform="translate(6 6)" fill="#fff"/>
            <g transform="translate(15 17)"><rect width="34" height="6" rx="1" fill="url(#f)"/>
                <path d="M0,14H34v6H0Z" fill="url(#f)"/><rect width="34" height="6" rx="1" transform="translate(0 28)" fill="url(#f)"/>
            </g>
        </g>
    <rect width="88" height="28" rx="1" transform="translate(0 61)" fill="url(#i)"/>
    <rect width="30" height="6" rx="1" transform="translate(29 72)" fill="#f7f8fa"/>
    </g>
</g>

</svg>