<svg xmlns="http://www.w3.org/2000/svg" xmlns:xlink="http://www.w3.org/1999/xlink" viewBox="0 0 160 160">
<defs>
<linearGradient id="a" x1="0.65" y1="0.8" x2="0.65" gradientUnits="objectBoundingBox">
    <stop offset="0" stop-color="#4d5a5a" stop-opacity="0"/>
    <stop offset="1" stop-color="#4d5a5a" stop-opacity="0.12"/>
</linearGradient>
<linearGradient id="b" x1="0.65" y1="0.8" x2="0.65" xlink:href="#a"/>
<linearGradient id="c" x1="0.65" y1="0.95" x2="0.65" xlink:href="#a"/>
<radialGradient id="e" cx="0.5" cy="0.5" r="2.97" gradientTransform="translate(0.58 0.72) rotate(180) scale(0.16 0.33)" gradientUnits="objectBoundingBox">
    <stop offset="0" stop-color="#ebedf0"/>
    <stop offset="1" stop-color="#f2f3f5" stop-opacity="0.302"/>
</radialGradient>
<linearGradient id="f" x1="0.5" x2="0.5" y2="1" gradientUnits="objectBoundingBox">
    <stop offset="0" stop-color="#4d5a5a" stop-opacity="0.12"/>
    <stop offset="1" stop-color="#4d5a5a" stop-opacity="0.2"/>
</linearGradient>
</defs>
<g transform="translate(-47 -211)">
<g transform="translate(45 205)" opacity="0.8">
<path d="M36,131V53H16V73H2v58Z" fill="url(#a)"/>
<path d="M123,15h22V29h9v77H123Z" fill="url(#b)"/>
</g>
<path d="M87,6c3,0,7,3,8,6a8.016,8.016,0,0,1-1,16H80a7,7,0,0,1-8-6c0-4,3-7,6-7A8.963,8.963,0,0,1,87,6Z" transform="translate(45 205)" fill="url(#c)"/>
<path d="M19,23c2,0,3,1,4,3a4.3,4.3,0,0,1,4,4,4,4,0,0,1-4,3v1H16V33l-1,1c-2,0-3-2-3-4a3.193,3.193,0,0,1,3-3A4.3,4.3,0,0,1,19,23Z" transform="translate(45 205)" fill="url(#c)"/>
<ellipse cx="46" cy="8" rx="46" ry="8" transform="translate(79 337)" opacity="0.8" fill="url(#e)"/>
<path d="M59,60,80,81l21-21h3l9,9v3L92,93l21,21v3l-9,9h-3L80,105,59,126H56l-9-9v-3L68,93,47,72V69l9-9Z" transform="translate(45 205)" fill="url(#f)"/>
</g>
</svg>